<svg width="942" height="300" viewBox="0 0 942 300" fill="none" xmlns="http://www.w3.org/2000/svg">
<g clip-path="url(#clip0_1365_15)">
<rect width="942" height="300" rx="15" fill="url(#paint0_linear_1365_15)"/>
<path d="M75.5248 240.648H75.1006C75.2496 241.95 75.5248 240.648 75.5248 240.648Z" fill="#FF0000"/>
<path d="M62.1335 240.65H75.1011C74.8432 238.391 74.975 228.342 77.5892 190.173C81.7111 129.904 149.702 199.448 188.342 232.406C226.975 265.381 321.756 236.534 360.39 222.62C399.017 208.713 338.244 181.923 320.214 178.833C310.428 177.153 306.702 174.293 302.391 174.556C287.239 167.425 271.806 168.847 255.404 170.612C244.3 171.799 233.602 172.355 222.653 169.678C209.932 166.571 198.088 156.762 188.147 148.77C156.49 123.322 124.22 96.9857 88.0344 78.0158C78.4606 68.5509 72.4411 62.4225 72.4411 62.4225C72.4411 62.4225 53.9011 34.6069 39.9876 57.2687C26.074 79.942 10.108 109.816 31.2278 146.959C52.3475 184.102 62.1335 240.65 62.1335 240.65ZM187.545 156.177C199.819 166.043 214.839 176.471 231.103 177.555C252.028 178.948 274.283 171.237 294.451 177.956C292.226 179.498 289.572 181.608 286.213 184.503C267.667 200.469 247.579 195.315 215.636 185.529C194.94 179.189 140.943 129.376 105.491 95.0881C134.465 113.043 161.185 134.989 187.545 156.177Z" fill="#FF0000"/>
<path d="M379.425 105.82C379.425 101.198 382.713 98.8542 389.288 98.7891H454.62C460.61 98.7891 466.437 100.189 472.101 102.988C482.322 108.132 487.465 116.497 487.53 128.086C487.53 136.94 483.624 144.46 475.812 150.645C472.361 153.314 468.585 155.43 464.483 156.992C470.017 160.312 474.9 165.586 479.132 172.812C487.205 186.81 493.227 196.576 497.198 202.109C501.235 207.643 505.239 210.996 509.21 212.168V217.344C498.663 218.32 490.46 216.302 484.601 211.289C478.806 206.276 472.947 197.878 467.022 186.094C461.098 174.245 457.322 166.986 455.694 164.316C454.067 161.647 452.504 160.312 451.007 160.312C449.575 160.247 448.37 161.387 447.394 163.73C446.482 166.074 445.733 167.539 445.147 168.125C444.171 169.036 442.608 169.525 440.46 169.59C438.377 169.59 436.716 168.646 435.479 166.758C434.308 164.87 433.722 163.079 433.722 161.387C433.722 155.853 438.442 153.086 447.882 153.086C449.835 153.086 451.463 153.151 452.765 153.281C461.098 152.891 466.892 148.789 470.147 140.977C471.58 137.396 472.296 133.522 472.296 129.355C472.296 119.329 468.65 112.266 461.358 108.164C457.452 106.016 452.927 104.941 447.784 104.941H430.694V200.254C430.694 204.486 431.052 207.025 431.769 207.871C432.485 208.652 433.884 209.238 435.968 209.629L442.608 210.996V215H404.62V211.191L410.284 210.02C413.735 209.303 415.785 207.969 416.437 206.016C417.153 204.062 417.511 200.319 417.511 194.785V117.441C416.209 108.913 412.758 104.518 407.159 104.258C405.206 104.258 402.634 105.527 399.444 108.066C395.082 111.582 391.306 113.372 388.116 113.438C384.926 113.438 382.68 112.591 381.378 110.898C380.076 109.141 379.425 107.448 379.425 105.82ZM521.808 159.727C521.808 142.539 526.56 128.053 536.065 116.27C545.636 104.421 558.233 98.4961 573.858 98.4961C590.59 98.4961 603.937 104.03 613.897 115.098C623.924 126.1 628.969 140.358 629.034 157.871C629.034 173.431 624.412 187.298 615.167 199.473C605.987 211.647 592.674 217.734 575.226 217.734C559.275 217.734 546.384 212.266 536.554 201.328C526.723 190.326 521.808 176.458 521.808 159.727ZM536.456 155.918C536.456 174.603 540.33 188.372 548.077 197.227C555.825 206.016 565.265 210.443 576.397 210.508C589.549 210.508 599.151 205.625 605.206 195.859C611.261 186.029 614.288 173.952 614.288 159.629C614.288 141.204 610.317 127.565 602.374 118.711C594.431 109.857 584.568 105.397 572.784 105.332H572.687C561.749 105.332 552.96 110.02 546.319 119.395C539.744 128.77 536.456 140.944 536.456 155.918ZM743.39 102.109L666.144 194.688L666.437 194.492C690.851 206.602 712.368 215.228 730.987 220.371C749.607 225.579 764.288 228.184 775.03 228.184C785.772 228.184 793.683 227.598 798.761 226.426C803.839 225.254 808.461 223.984 812.628 222.617V227.305C809.894 230.43 804.555 232.936 796.612 234.824C788.67 236.712 779.262 237.689 768.39 237.754C741.502 237.884 703.839 227.109 655.401 205.43L654.718 206.016C654.718 210.508 654.457 213.535 653.937 215.098C653.416 216.66 652.407 218.385 650.909 220.273C649.477 222.096 647.687 222.943 645.538 222.812C643.39 222.682 641.664 222.096 640.362 221.055C636.977 218.06 637.335 214.089 641.437 209.141L726.495 105.039H672.784C668.227 105.039 665.134 106.895 663.507 110.605C662.53 112.884 661.716 116.53 661.065 121.543H655.987V98.7891H743.878L743.39 102.109Z" fill="#FF0000"/>
<path d="M787.582 197.594C787.265 192.622 784.895 190.125 780.473 190.104C777.87 190.104 776.082 190.887 775.109 192.453C774.665 193.172 774.442 194.082 774.442 195.182C774.442 196.409 775.098 197.615 776.41 198.8L777.458 199.721L784.535 205.719C788.746 209.38 790.862 213.4 790.883 217.78C790.883 220.594 789.666 222.847 787.233 224.54C784.8 226.212 782.028 227.047 778.917 227.047C776.929 227.047 775.363 226.772 774.22 226.222C773.078 225.672 772.337 225.312 771.999 225.143C771.681 224.974 771.078 224.572 770.189 223.937L768.856 222.985V217.304C768.856 215.442 769.512 214.035 770.824 213.083C772.136 212.109 773.649 211.623 775.363 211.623C777.077 211.623 778.505 211.898 779.647 212.448C780.769 213.019 781.34 213.76 781.361 214.669V214.733C781.361 215.622 780.917 216.203 780.028 216.479C779.817 216.542 779.595 216.574 779.362 216.574C778.6 216.574 778.092 216.267 777.838 215.653C777.606 215.04 777.479 214.712 777.458 214.669C777.034 214.077 776.199 213.781 774.95 213.781C773.152 213.781 772.051 214.638 771.649 216.352C771.565 216.69 771.522 217.007 771.522 217.304C771.522 220.499 772.697 222.699 775.045 223.905C776.167 224.477 777.479 224.762 778.981 224.762C782.43 224.762 784.778 223.598 786.027 221.271C786.535 220.319 786.789 219.324 786.789 218.288C786.789 216.51 785.963 214.468 784.313 212.162C783.488 210.998 782.631 210.057 781.742 209.337L775.934 204.64C773.31 202.482 771.692 200.757 771.078 199.467C770.486 198.155 770.189 196.949 770.189 195.849C770.189 193.31 771.226 191.352 773.3 189.977C775.373 188.581 777.817 187.882 780.631 187.882C783.869 187.882 786.905 188.76 789.74 190.517L789.708 197.594H787.582ZM809.64 236.759C811.566 236.759 812.528 234.59 812.528 230.253V193.151C812.528 191.754 812.433 190.929 812.243 190.675C812.052 190.443 811.629 190.252 810.973 190.104L808.815 189.628H801.991C800.002 189.628 798.585 190.696 797.738 192.833C797.357 193.786 797.167 194.738 797.167 195.69C797.167 200.028 798.13 202.196 800.055 202.196C800.394 202.196 800.933 201.879 801.674 201.244C802.859 200.355 803.853 199.879 804.657 199.816C806.075 199.816 806.826 200.461 806.911 201.752C806.974 202.619 806.572 203.297 805.705 203.783C805.26 204.016 804.795 204.132 804.308 204.132C801.875 204.132 800.129 203.952 799.071 203.593C794.988 202.217 792.935 199.477 792.914 195.373C792.914 192.558 794.247 190.527 796.913 189.279C798.415 188.581 800.108 188.231 801.991 188.231H821.161V189.564L819.32 189.945C818.157 190.178 817.448 190.644 817.194 191.342C816.94 192.04 816.813 193.225 816.813 194.896V205.243H839.601V194.896C839.601 192.971 839.442 191.712 839.125 191.12C838.808 190.527 838.152 190.136 837.157 189.945L835.285 189.564V188.231H847.599V189.628L845.441 190.104C844.679 190.273 844.235 190.506 844.108 190.802C843.96 191.12 843.886 191.903 843.886 193.151V221.144C843.886 222.498 843.981 223.302 844.171 223.556C844.383 223.789 844.806 223.979 845.441 224.127L847.599 224.604V226H835.285V224.667L837.125 224.286C838.268 224.053 838.966 223.588 839.22 222.89C839.474 222.191 839.601 221.007 839.601 219.335V207.211H816.813V228.38C816.559 231.956 815.618 234.559 813.988 236.188C812.359 237.838 809.746 238.664 806.149 238.664C804.837 238.664 803.948 238.431 803.483 237.965C803.039 237.521 802.816 236.96 802.816 236.283C802.901 235.014 803.642 234.379 805.038 234.379C805.927 234.379 806.784 234.76 807.609 235.521C808.455 236.304 809.132 236.717 809.64 236.759ZM851.217 208.036C851.217 202.45 852.762 197.742 855.851 193.913C858.961 190.062 863.056 188.136 868.134 188.136C873.572 188.136 877.909 189.935 881.146 193.532C884.405 197.108 886.045 201.741 886.066 207.433C886.066 212.49 884.564 216.997 881.559 220.954C878.576 224.91 874.249 226.889 868.578 226.889C863.394 226.889 859.205 225.111 856.01 221.557C852.815 217.981 851.217 213.474 851.217 208.036ZM855.978 206.798C855.978 212.871 857.237 217.346 859.755 220.224C862.273 223.08 865.341 224.519 868.959 224.54C873.233 224.54 876.354 222.953 878.322 219.779C880.29 216.584 881.273 212.659 881.273 208.004C881.273 202.016 879.983 197.584 877.401 194.706C874.82 191.828 871.614 190.379 867.785 190.358H867.753C864.198 190.358 861.342 191.881 859.184 194.928C857.047 197.975 855.978 201.932 855.978 206.798ZM909.965 224.032C911.679 224.032 912.705 222.742 913.043 220.16H914.313V226H889.049V224.667L890.89 224.286C892.033 224.053 892.731 223.588 892.985 222.89C893.239 222.191 893.366 221.007 893.366 219.335V194.896C893.366 192.971 893.207 191.723 892.89 191.151C892.572 190.559 891.916 190.157 890.922 189.945L889.049 189.564V188.231H912.472V194.071H911.203C910.843 191.532 909.817 190.242 908.124 190.199H897.619V206.354H904.95C905.754 206.354 906.23 206.227 906.378 205.973C906.548 205.719 906.728 205.19 906.918 204.386L907.235 202.99H908.568V211.623H907.235C906.897 209.888 906.579 208.904 906.283 208.671C906.008 208.438 905.553 208.322 904.918 208.322H897.619V224.032H909.965Z" fill="#FF0000"/>
</g>
<defs>
<linearGradient id="paint0_linear_1365_15" x1="-66" y1="280" x2="1131" y2="289" gradientUnits="userSpaceOnUse">
<stop/>
<stop offset="0.740155" stop-opacity="0"/>
</linearGradient>
<clipPath id="clip0_1365_15">
<rect width="942" height="300" rx="15" fill="white"/>
</clipPath>
</defs>
</svg>
